<svg width="14" height="14" viewBox="0 0 14 14" fill="none" xmlns="http://www.w3.org/2000/svg">
<path d="M13.7722 0.227771C13.4685 -0.0759238 12.9762 -0.0759238 12.6725 0.227771L6.99998 5.90024L1.32753 0.227771C1.02385 -0.0759238 0.53146 -0.0759238 0.227772 0.227771C-0.075924 0.531459 -0.075924 1.02384 0.227772 1.32753L5.90023 6.99999L0.227787 12.6724C-0.0759086 12.9762 -0.0759086 13.4685 0.227787 13.7722C0.531475 14.0759 1.02386 14.0759 1.32755 13.7722L6.99998 8.09976L12.6725 13.7722C12.9762 14.0759 13.4685 14.0759 13.7722 13.7722C14.0759 13.4685 14.0759 12.9762 13.7722 12.6725L8.09976 6.99999L13.7722 1.32753C14.0759 1.02384 14.0759 0.531459 13.7722 0.227771Z" fill="white"/>
</svg>
