<svg width="34" height="34" viewBox="0 0 34 34" fill="none" xmlns="http://www.w3.org/2000/svg">
<path d="M23 17C23 18.1046 23.8954 19 25 19C26.1046 19 27 18.1046 27 17C27 15.8954 26.1046 15 25 15C23.8954 15 23 15.8954 23 17Z" fill="white" fill-opacity="0.5"/>
<path d="M15 17C15 18.1046 15.8954 19 17 19C18.1046 19 19 18.1046 19 17C19 15.8954 18.1046 15 17 15C15.8954 15 15 15.8954 15 17Z" fill="white" fill-opacity="0.5"/>
<path d="M7 17C7 18.1046 7.89543 19 9 19C10.1046 19 11 18.1046 11 17C11 15.8954 10.1046 15 9 15C7.89543 15 7 15.8954 7 17Z" fill="white" fill-opacity="0.5"/>
</svg>
