<svg width="46" height="46" viewBox="0 0 46 46" fill="none" xmlns="http://www.w3.org/2000/svg">
<path d="M35.5202 11.268C33.1733 10.206 30.6808 9.432 28.0793 9C27.7518 9.55801 27.3878 10.314 27.1332 10.908C24.3661 10.512 21.6189 10.512 18.8901 10.908C18.6354 10.314 18.2533 9.55801 17.944 9C15.3243 9.432 12.8319 10.206 10.5014 11.268C5.78949 18.144 4.51599 24.8579 5.15274 31.4819C8.28188 33.7318 11.3019 35.0999 14.2691 36C14.9968 35.028 15.6518 33.9839 16.2158 32.8859C15.1424 32.49 14.1236 32.004 13.1412 31.4279C13.3959 31.248 13.6506 31.0501 13.8871 30.8519C19.8179 33.5341 26.2419 33.5341 32.0998 30.8519C32.3545 31.0501 32.591 31.248 32.8457 31.4279C31.8633 32.004 30.8445 32.49 29.7712 32.8859C30.3351 33.9839 30.9902 35.028 31.7178 36C34.6833 35.0999 37.7214 33.7318 40.8342 31.4819C41.6164 23.8141 39.5953 17.154 35.5202 11.268ZM17.0344 27.3959C15.2515 27.3959 13.7961 25.794 13.7961 23.8319C13.7961 21.8701 15.2151 20.268 17.0344 20.268C18.8355 20.268 20.3091 21.8701 20.2727 23.8319C20.2727 25.794 18.8355 27.3959 17.0344 27.3959ZM28.9889 27.3959C27.206 27.3959 25.7488 25.794 25.7488 23.8319C25.7488 21.8701 27.1695 20.268 28.9889 20.268C30.7899 20.268 32.2636 21.8701 32.2272 23.8319C32.2272 25.794 30.8082 27.3959 28.9889 27.3959Z" fill="#7289DA"/>
</svg>
