<svg width="46" height="46" viewBox="0 0 46 46" fill="none" xmlns="http://www.w3.org/2000/svg">
<path fill-rule="evenodd" clip-rule="evenodd" d="M23 5C32.9414 5 41 13.0818 41 23.0531C41 31.0277 35.8484 37.7926 28.7006 40.182C27.788 40.3598 27.464 39.796 27.464 39.3154C27.464 38.7202 27.4856 36.7764 27.4856 34.3606C27.4856 32.6773 26.9096 31.5787 26.2634 31.0187C30.272 30.5715 34.484 29.0448 34.484 22.1108C34.484 20.1388 33.7856 18.5295 32.63 17.2652C32.8172 16.8092 33.4346 14.973 32.4536 12.4867C32.4536 12.4867 30.9452 12.003 27.509 14.3378C26.0708 13.9381 24.53 13.737 23 13.7299C21.47 13.737 19.931 13.9381 18.4946 14.3378C15.0548 12.003 13.5428 12.4867 13.5428 12.4867C12.5654 14.973 13.1828 16.8092 13.3682 17.2652C12.218 18.5295 11.5142 20.1388 11.5142 22.1108C11.5142 29.0272 15.7172 30.5773 19.715 31.0333C19.2002 31.4841 18.734 32.2793 18.572 33.4467C17.546 33.908 14.9396 34.7064 13.334 31.9473C13.334 31.9473 12.3818 30.2127 10.5746 30.0859C10.5746 30.0859 8.8196 30.0631 10.4522 31.1829C10.4522 31.1829 11.6312 31.7376 12.4502 33.8241C12.4502 33.8241 13.5068 37.0463 18.5144 35.9546C18.5234 37.4636 18.5396 38.8857 18.5396 39.3154C18.5396 39.7925 18.2084 40.351 17.3102 40.1837C10.157 37.7979 5 31.0294 5 23.0531C5 13.0818 13.0604 5 23 5Z" fill="black"/>
<path d="M28.7006 40.182C27.788 40.3598 27.464 39.796 27.464 39.3154C27.464 38.7202 27.4856 36.7764 27.4856 34.3606C27.4856 32.6773 26.9096 31.5787 26.2634 31.0187C30.272 30.5715 34.484 29.0448 34.484 22.1108C34.484 20.1388 33.7856 18.5295 32.63 17.2652C32.8172 16.8092 33.4346 14.973 32.4536 12.4867C32.4536 12.4867 30.9452 12.003 27.509 14.3378C26.0708 13.9381 24.53 13.737 23 13.7299C21.47 13.737 19.931 13.9381 18.4946 14.3378C15.0548 12.003 13.5428 12.4867 13.5428 12.4867C12.5654 14.973 13.1828 16.8092 13.3682 17.2652C12.218 18.5295 11.5142 20.1388 11.5142 22.1108C11.5142 29.0272 15.7172 30.5773 19.715 31.0333C19.2002 31.4841 18.734 32.2793 18.572 33.4467C17.546 33.908 14.9396 34.7064 13.334 31.9473C13.334 31.9473 12.3818 30.2127 10.5746 30.0859C10.5746 30.0859 8.8196 30.0631 10.4522 31.1829C10.4522 31.1829 11.6312 31.7376 12.4502 33.8241C12.4502 33.8241 13.5068 37.0463 18.5144 35.9546C18.5234 37.4636 18.5396 38.8857 18.5396 39.3154C18.5396 39.7925 18.2084 40.351 17.3102 40.1837C17.3102 40.1837 20.5092 40.9565 22.6 40.9981C25.0041 41.0459 28.7006 40.182 28.7006 40.182Z" fill="white"/>
</svg>
