<svg width="46" height="46" viewBox="0 0 46 46" fill="none" xmlns="http://www.w3.org/2000/svg">
<path fill-rule="evenodd" clip-rule="evenodd" d="M23 32.8182C28.4224 32.8182 32.8182 28.4224 32.8182 23C32.8182 17.5776 28.4224 13.1818 23 13.1818C17.5776 13.1818 13.1818 17.5776 13.1818 23C13.1818 28.4224 17.5776 32.8182 23 32.8182ZM23 29.5455C26.6149 29.5455 29.5455 26.6149 29.5455 23C29.5455 19.385 26.6149 16.4545 23 16.4545C19.385 16.4545 16.4545 19.385 16.4545 23C16.4545 26.6149 19.385 29.5455 23 29.5455Z" fill="#EC0075"/>
<path d="M32.8182 11.5455C31.9144 11.5455 31.1818 12.2781 31.1818 13.1818C31.1818 14.0855 31.9144 14.8182 32.8182 14.8182C33.7219 14.8182 34.4545 14.0855 34.4545 13.1818C34.4545 12.2781 33.7219 11.5455 32.8182 11.5455Z" fill="#EC0075"/>
<path fill-rule="evenodd" clip-rule="evenodd" d="M6.07012 10.3608C5 12.461 5 15.2104 5 20.7091V25.2909C5 30.7896 5 33.539 6.07012 35.6391C7.01142 37.4866 8.5134 38.9886 10.3608 39.9298C12.461 41 15.2104 41 20.7091 41H25.2909C30.7896 41 33.539 41 35.6391 39.9298C37.4866 38.9886 38.9886 37.4866 39.9298 35.6391C41 33.539 41 30.7896 41 25.2909V20.7091C41 15.2104 41 12.461 39.9298 10.3608C38.9886 8.5134 37.4866 7.01142 35.6391 6.07012C33.539 5 30.7896 5 25.2909 5H20.7091C15.2104 5 12.461 5 10.3608 6.07012C8.5134 7.01142 7.01142 8.5134 6.07012 10.3608ZM25.2909 8.27273H20.7091C17.9057 8.27273 16 8.27528 14.527 8.39562C13.0922 8.51285 12.3585 8.72533 11.8466 8.98613C10.615 9.61368 9.61368 10.615 8.98613 11.8466C8.72533 12.3585 8.51285 13.0922 8.39562 14.527C8.27528 16 8.27273 17.9057 8.27273 20.7091V25.2909C8.27273 28.0943 8.27528 29.9999 8.39562 31.4729C8.51285 32.9079 8.72533 33.6416 8.98613 34.1535C9.61368 35.385 10.615 36.3863 11.8466 37.0138C12.3585 37.2747 13.0922 37.4872 14.527 37.6044C16 37.7247 17.9057 37.7273 20.7091 37.7273H25.2909C28.0943 37.7273 29.9999 37.7247 31.4729 37.6044C32.9079 37.4872 33.6416 37.2747 34.1535 37.0138C35.385 36.3863 36.3863 35.385 37.0138 34.1535C37.2747 33.6416 37.4872 32.9079 37.6044 31.4729C37.7247 29.9999 37.7273 28.0943 37.7273 25.2909V20.7091C37.7273 17.9057 37.7247 16 37.6044 14.527C37.4872 13.0922 37.2747 12.3585 37.0138 11.8466C36.3863 10.615 35.385 9.61368 34.1535 8.98613C33.6416 8.72533 32.9079 8.51285 31.4729 8.39562C29.9999 8.27528 28.0943 8.27273 25.2909 8.27273Z" fill="#EC0075"/>
</svg>
