<svg width="46" height="46" viewBox="0 0 46 46" fill="none" xmlns="http://www.w3.org/2000/svg">
<path fill-rule="evenodd" clip-rule="evenodd" d="M33.647 20.9574C27.8456 17.5122 18.275 17.195 12.7346 18.8762C11.8454 19.1444 10.9058 18.6439 10.6358 17.7529C10.3658 16.8637 10.868 15.9241 11.7572 15.6541C18.1166 13.7227 28.6862 14.0951 35.366 18.0605C36.1652 18.5357 36.428 19.5694 35.9528 20.3686C35.4812 21.1678 34.4444 21.4326 33.647 20.9574ZM33.458 26.0604C33.0512 26.721 32.1872 26.9277 31.5266 26.5227C26.69 23.5491 19.3136 22.6886 13.5914 24.4256C12.848 24.6488 12.065 24.2312 11.84 23.4896C11.6168 22.748 12.0344 21.9646 12.776 21.7396C19.3118 19.756 27.4388 20.7174 32.9954 24.132C33.656 24.537 33.863 25.4016 33.458 26.0604ZM31.2548 30.9611C30.9308 31.4903 30.2414 31.6578 29.7122 31.3338C25.4858 28.7508 20.165 28.1678 13.8992 29.5988C13.2962 29.7374 12.6932 29.359 12.5564 28.7542C12.4178 28.1512 12.794 27.5507 13.4006 27.4121C20.2568 25.8443 26.1374 26.5189 30.8822 29.4187C31.4114 29.7427 31.5788 30.4319 31.2548 30.9611ZM23 5C13.0586 5 5 13.0586 5 23C5 32.9414 13.0586 41 23 41C32.9414 41 41 32.9414 41 23C41 13.0604 32.9414 5 23 5Z" fill="#1DB954"/>
</svg>
