<svg width="46" height="46" viewBox="0 0 46 46" fill="none" xmlns="http://www.w3.org/2000/svg">
<path d="M25.5876 18.3549C25.5876 16.4774 27.1067 14.9553 28.9792 14.9553C30.8517 14.9553 32.3707 16.4774 32.3707 18.3537C32.3707 20.2312 30.8529 21.7521 28.9792 21.7521H28.978C27.1055 21.7521 25.5876 20.2312 25.5876 18.3549ZM33.4813 18.3621C33.4813 15.864 31.4603 13.8388 28.9672 13.8388C26.4741 13.8388 24.4531 15.864 24.4531 18.3621C24.4531 20.8602 26.4741 22.8854 28.9672 22.8854C31.4591 22.8818 33.4777 20.8578 33.4813 18.3621ZM16.3929 32.3172L14.1873 31.4025C14.8151 32.6966 16.1173 33.5729 17.6232 33.5729C19.201 33.5729 20.556 32.6113 21.1334 31.2404L21.143 31.2152C21.3287 30.7807 21.4377 30.2741 21.4377 29.7435C21.4377 27.6343 19.7317 25.9249 17.6268 25.9249C17.1416 25.9249 16.678 26.0161 16.2515 26.1806L16.2779 26.1722L18.5577 27.1169C19.5784 27.5539 20.2816 28.5526 20.2816 29.7147C20.2816 31.2704 19.0225 32.5321 17.4699 32.5321C17.0817 32.5321 16.7127 32.4529 16.3761 32.3112L16.3941 32.3184L16.3929 32.3172ZM23.0382 5C13.6255 5.0012 5.90549 12.2579 5.14236 21.4916L5.13756 21.5565L14.7672 25.5443C15.5674 24.9897 16.5582 24.6596 17.6268 24.6596H17.6292C17.7239 24.6596 17.8161 24.6656 17.9108 24.6692L22.1936 18.4557V18.3669C22.1972 14.6215 25.2282 11.5868 28.966 11.5868C32.7062 11.5868 35.7383 14.6251 35.7383 18.3729C35.7383 22.1207 32.7062 25.159 28.966 25.159H28.8091L22.7064 29.5262C22.7064 29.6042 22.7124 29.6835 22.7124 29.7651V29.7687C22.7124 32.5801 20.4374 34.8597 17.6316 34.8597C15.1793 34.8597 13.1319 33.1179 12.6563 30.8023L12.6503 30.7698L5.75574 27.9092C7.96127 35.526 14.8618 41 23.037 41C32.9578 41 41 32.9414 41 23.0006C41 13.0598 32.9578 5.0012 23.037 5.0012L23.0382 5Z" fill="#102C5E"/>
<path fill-rule="evenodd" clip-rule="evenodd" d="M14.7672 25.5443L5.13756 21.5565C5.13756 21.5565 4.82798 24.1722 5.13775 25.8C5.29825 26.6434 5.75574 27.9092 5.75574 27.9092L12.6503 30.7698L12.6563 30.8023C13.1319 33.1179 15.1793 34.8597 17.6316 34.8597C20.4374 34.8597 22.7124 32.5801 22.7124 29.7687V29.7651C22.7124 29.6835 22.7064 29.6042 22.7064 29.5262L28.8091 25.159H28.966C32.7062 25.159 35.7383 22.1207 35.7383 18.3729C35.7383 14.6251 32.7062 11.5868 28.966 11.5868C25.2282 11.5868 22.1972 14.6215 22.1936 18.3669V18.4557L17.9108 24.6692C17.8161 24.6656 17.7239 24.6596 17.6292 24.6596H17.6268C16.5582 24.6596 15.5674 24.9897 14.7672 25.5443ZM28.9672 13.8388C31.4603 13.8388 33.4813 15.864 33.4813 18.3621C33.4777 20.8578 31.4591 22.8818 28.9672 22.8854C26.4741 22.8854 24.4531 20.8602 24.4531 18.3621C24.4531 15.864 26.4741 13.8388 28.9672 13.8388ZM14.1873 31.4025L16.3929 32.3172L16.3941 32.3184L16.3761 32.3112C16.7127 32.4529 17.0817 32.5321 17.4699 32.5321C19.0225 32.5321 20.2816 31.2704 20.2816 29.7147C20.2816 28.5526 19.5784 27.5539 18.5577 27.1169L16.2779 26.1722L16.2515 26.1806C16.678 26.0161 17.1416 25.9249 17.6268 25.9249C19.7317 25.9249 21.4377 27.6343 21.4377 29.7435C21.4377 30.2741 21.3287 30.7807 21.143 31.2152L21.1334 31.2404C20.556 32.6113 19.201 33.5729 17.6232 33.5729C16.1173 33.5729 14.8151 32.6966 14.1873 31.4025Z" fill="white"/>
<path d="M25.5876 18.3549C25.5876 16.4774 27.1067 14.9553 28.9792 14.9553C30.8517 14.9553 32.3707 16.4774 32.3707 18.3537C32.3707 20.2312 30.8529 21.7521 28.9792 21.7521H28.978C27.1055 21.7521 25.5876 20.2312 25.5876 18.3549Z" fill="white"/>
</svg>
