<svg width="46" height="46" viewBox="0 0 46 46" fill="none" xmlns="http://www.w3.org/2000/svg">
<path d="M23.2815 5.03001C25.229 5 27.1622 5.01561 29.0942 5C29.1584 7.43834 30.1387 9.63296 31.6984 11.2585L31.696 11.2561C33.3746 12.782 35.5588 13.7713 37.9667 13.9394L38 13.9418V19.9878C35.7254 19.9302 33.5863 19.4007 31.6579 18.4907L31.7555 18.5315C30.8228 18.0789 30.034 17.6143 29.2845 17.0956L29.3464 17.1365C29.3321 21.5173 29.3607 25.8982 29.3166 30.2634C29.1941 32.488 28.4613 34.517 27.2859 36.211L27.3097 36.1737C25.3444 39.0143 22.1608 40.8787 18.5407 40.9892H18.524C18.3777 40.9964 18.2052 41 18.0315 41C15.9734 41 14.0497 40.4213 12.4103 39.4165L12.4579 39.4441C9.47425 37.6324 7.41613 34.5326 7.03544 30.9273L7.03068 30.8781C7.00094 30.1277 6.98667 29.3774 7.01641 28.6426C7.59934 22.9052 12.3628 18.4667 18.1528 18.4667C18.8036 18.4667 19.4413 18.5231 20.0611 18.63L19.9944 18.6204C20.0242 20.8402 19.935 23.0612 19.935 25.2811C19.4317 25.0974 18.8512 24.9905 18.2456 24.9905C16.0233 24.9905 14.133 26.424 13.4335 28.4253L13.4227 28.4613C13.2645 28.974 13.1729 29.5635 13.1729 30.1733C13.1729 30.4207 13.1884 30.6656 13.2169 30.9057L13.2146 30.8769C13.6095 33.3332 15.6962 35.1869 18.2123 35.1869C18.2849 35.1869 18.3563 35.1857 18.4277 35.1821H18.417C20.1574 35.1293 21.6683 34.1844 22.5225 32.7882L22.5344 32.7666C22.852 32.3199 23.0697 31.7797 23.1423 31.1926L23.1435 31.1758C23.2922 28.4902 23.2327 25.8201 23.247 23.1345C23.2613 17.0884 23.2327 11.0568 23.2767 5.02641L23.2815 5.03001Z" fill="white"/>
</svg>
